<svg version="1.1" id="Layer_1" xmlns="http://www.w3.org/2000/svg" xmlns:xlink="http://www.w3.org/1999/xlink" x="0px" y="0px"
	 width="100%" viewBox="0 0 1024 576" enable-background="new 0 0 1024 576" xml:space="preserve">
<path fill="#000000" opacity="1.000000" stroke="none" 
	d="
M415.590790,333.466553 
	C415.126495,320.494843 417.098877,307.835876 414.695648,295.259064 
	C413.883057,291.006287 413.078369,286.799011 411.247009,282.797974 
	C409.914062,279.885742 407.866608,278.995209 404.902893,279.105133 
	C398.618591,279.338226 393.893494,282.197205 390.070465,287.100922 
	C381.168579,298.519165 374.831238,311.244385 370.101654,324.865051 
	C367.999115,330.920013 365.275177,332.733063 361.339600,331.254852 
	C357.341492,329.753174 355.729248,325.730255 357.958191,320.255035 
	C363.265778,307.217438 361.638672,294.159790 358.591339,281.112213 
	C356.833191,273.584625 353.096344,272.011719 346.081787,275.681580 
	C337.698761,280.067383 331.160645,286.660217 325.479828,294.140106 
	C320.077393,301.253571 316.574493,309.238831 314.099457,317.797424 
	C312.033691,324.940674 309.562317,326.814209 305.297760,325.444794 
	C300.862823,324.020630 299.803436,320.368774 301.982544,313.665253 
	C306.268005,300.482147 306.390442,286.912018 303.140991,273.790527 
	C299.976959,261.014099 290.979767,257.575714 279.273315,258.665192 
	C270.196411,259.509949 263.118164,264.390778 257.031219,270.896912 
	C240.986923,288.046082 225.981873,306.072998 211.573029,324.606659 
	C205.048889,332.998474 198.539200,341.403290 191.874313,349.682556 
	C190.226456,351.729523 188.079193,353.409088 186.016586,355.078522 
	C183.659729,356.986145 181.118835,356.101959 179.081314,354.625275 
	C177.066467,353.164948 177.275223,350.825348 178.203384,348.693665 
	C178.731079,347.481689 179.303848,346.223938 180.137314,345.220123 
	C201.073944,320.004089 219.228714,292.536835 241.843384,268.688904 
	C250.885529,259.153656 259.914520,249.403625 273.725586,246.698669 
	C275.699524,246.312057 276.532104,245.041290 276.493683,243.144516 
	C276.455078,241.241592 274.971954,240.823334 273.516815,240.301025 
	C257.960144,234.717056 247.384247,211.357681 253.401947,195.924774 
	C256.124115,188.943604 263.148315,187.426895 269.066467,192.822433 
	C274.556458,197.827682 278.238464,204.179489 281.289429,210.896240 
	C282.443634,213.437378 283.468719,216.049988 285.490021,218.454468 
	C290.539337,214.428802 293.864960,209.173050 298.131592,204.813370 
	C302.477905,200.372314 306.795105,196.065033 313.822144,196.426193 
	C319.790802,196.732956 323.108307,199.650620 323.298615,205.684875 
	C323.621674,215.928894 320.468689,224.337921 310.652557,229.193649 
	C303.794708,232.586014 297.649475,237.334915 290.392487,239.964828 
	C288.338165,240.709320 287.466553,242.146439 287.544495,244.140045 
	C287.647217,246.765778 289.789185,246.570938 291.586395,246.789841 
	C301.927765,248.049408 312.863251,257.935150 315.405914,268.098969 
	C316.498138,272.464905 317.492218,276.823822 317.708862,281.890839 
	C325.107086,275.056091 331.820038,268.031219 340.398468,263.307739 
	C349.941956,258.052887 362.367065,260.100037 367.751556,268.149597 
	C370.070099,271.615692 371.104950,275.703369 372.202881,279.709015 
	C372.754730,281.722412 373.364532,283.719910 374.132812,286.359039 
	C378.436066,281.479950 381.193237,276.486725 385.316620,272.585938 
	C392.041748,266.223724 406.994293,263.197510 415.386810,266.911285 
	C419.617676,268.783508 421.752167,272.671783 423.343567,276.755981 
	C424.727600,280.307953 426.004333,283.932739 426.923096,287.626190 
	C427.830139,291.272583 428.228851,295.045410 428.976257,299.514374 
	C433.432587,296.471680 435.461945,292.361450 437.935974,288.849731 
	C448.842743,273.368103 464.708191,266.849792 482.466095,264.065857 
	C491.756012,262.609436 496.332611,267.456055 496.457153,276.890961 
	C496.524841,282.015259 495.358795,286.925659 493.578400,291.486633 
	C490.566040,299.203552 489.042358,307.114227 488.488464,315.273285 
	C488.343475,317.409454 486.908569,320.232239 489.857117,321.483276 
	C492.501251,322.605133 494.692139,320.891266 496.569946,319.181213 
	C503.981659,312.431793 508.121094,303.790955 510.441925,294.241760 
	C511.951874,288.029083 514.447021,282.307800 517.553650,276.760590 
	C519.421448,273.425385 521.741821,272.292603 525.343750,273.809998 
	C528.997620,275.349274 529.197815,277.749664 528.580261,281.466797 
	C527.139038,290.141174 524.512634,298.627777 524.159119,307.472168 
	C523.989807,311.706329 524.152954,316.495514 527.799988,318.890503 
	C531.444092,321.283539 535.066467,317.869049 538.275452,316.051239 
	C550.714355,309.005005 559.935974,299.136810 564.625854,285.344727 
	C566.391235,280.153229 568.673096,275.139587 570.563232,269.987518 
	C572.008240,266.048645 574.601318,264.371613 578.687439,265.434113 
	C582.745300,266.489258 583.796448,269.681152 583.121460,273.226898 
	C582.034668,278.936371 580.249329,284.511902 579.135559,290.217529 
	C577.905884,296.517548 576.318237,302.815155 579.041260,309.269806 
	C581.407837,314.879486 582.759277,315.219482 587.698914,311.783203 
	C598.895569,303.994293 603.634338,292.501709 606.585876,279.936432 
	C607.838135,274.605499 608.661377,269.175171 609.782471,263.811493 
	C610.515442,260.305145 611.354309,256.786804 616.140686,256.951355 
	C620.565369,257.103516 622.809570,259.600708 623.351868,263.757721 
	C624.665833,273.829834 624.557800,283.974060 624.601013,294.098969 
	C624.611145,296.476501 624.696289,298.711945 625.944275,301.490753 
	C630.616089,298.723969 635.886230,297.100739 637.509644,291.002502 
	C641.232727,277.017059 650.450195,266.406555 659.456787,255.706573 
	C661.696899,253.045273 664.656311,251.634995 668.354431,252.721634 
	C670.586304,253.377426 672.897400,253.381012 675.228394,253.473312 
	C683.002563,253.781158 688.058899,258.898682 689.099670,267.206390 
	C689.343506,269.152588 689.425659,271.119049 689.615356,273.490082 
	C695.777161,272.772430 700.533508,269.705475 705.415344,267.005127 
	C711.729858,263.512360 716.817444,258.389099 722.408203,253.944565 
	C727.088135,250.224121 730.355469,250.397797 733.630066,255.638031 
	C740.802673,267.115906 745.561829,279.364410 744.595520,293.663422 
	C751.219299,291.159241 755.622131,286.009125 759.939453,280.949127 
	C767.057434,272.606903 775.080994,265.167023 785.007996,260.720245 
	C791.973694,257.600006 799.217957,255.429260 807.414246,261.024231 
	C812.898438,264.767853 813.425110,267.490356 812.662231,273.243469 
	C811.208252,284.209045 809.447021,295.242004 811.952271,306.440521 
	C813.745178,314.454773 820.311157,317.896484 827.171204,313.607483 
	C836.040955,308.062012 842.741638,300.795502 846.175110,290.657440 
	C847.214905,287.587158 848.178833,283.475067 853.359009,285.254150 
	C857.978882,286.840790 858.046326,290.199005 857.294495,294.110657 
	C853.870544,311.925323 841.821777,322.375061 826.286926,329.240326 
	C818.954834,332.480591 806.989441,326.103577 802.275391,317.754028 
	C800.962585,315.428802 799.946838,312.972717 799.395874,310.057526 
	C796.901184,310.570374 795.727722,312.452209 794.245789,313.876892 
	C781.685852,325.951569 771.295715,324.509155 757.834473,316.014008 
	C754.362183,313.822784 754.020264,309.598816 752.120850,305.474823 
	C744.859497,310.724030 737.841064,315.662689 730.977173,320.807648 
	C726.527405,324.143036 721.798035,326.102570 716.141052,325.405121 
	C712.696106,324.980377 709.811035,323.770752 709.609070,319.856842 
	C709.412109,316.038361 711.044861,312.969421 714.903137,311.738251 
	C727.773193,307.631531 734.718750,295.535645 731.389343,282.427032 
	C730.267151,278.008545 729.757996,273.257507 726.330688,269.268097 
	C719.071716,273.917603 712.707764,279.679871 704.812561,282.919342 
	C701.122925,284.433258 697.413940,286.758362 693.618042,286.965912 
	C686.945740,287.330780 684.105835,290.916748 681.260254,296.329742 
	C677.748047,303.011047 674.448181,310.079590 668.109741,314.918671 
	C658.545776,322.220367 648.129211,320.943604 640.702271,311.394592 
	C640.293335,310.868774 640.000122,310.252991 639.390991,309.245697 
	C634.781982,312.399506 630.693726,315.182281 626.622864,317.990417 
	C625.175232,318.988922 625.252991,320.561401 625.250793,322.059265 
	C625.245239,325.891846 624.944763,329.759888 625.351624,333.550446 
	C626.534058,344.564697 625.561707,355.372314 623.436523,366.203918 
	C621.228394,377.458496 621.647034,389.091278 619.040649,400.297882 
	C617.881348,405.282562 616.753418,410.439362 610.769043,412.373962 
	C602.891357,414.920563 595.615417,411.028503 591.988953,401.977478 
	C588.594238,393.504456 587.510620,384.476837 587.350952,375.556427 
	C587.118347,362.560486 589.081360,349.770416 593.398926,337.325867 
	C596.619751,328.042206 601.909607,320.427979 609.199280,314.111450 
	C611.672180,311.968689 612.538696,309.771942 611.255554,306.394623 
	C605.977112,312.098206 601.944641,318.703491 595.590637,323.120911 
	C591.266663,326.127045 586.775330,328.724762 581.339966,328.281799 
	C574.876831,327.755066 570.832764,323.707123 568.164368,318.124237 
	C567.164551,316.032257 566.422302,313.817200 565.286804,310.965668 
	C558.989441,319.225800 550.643250,324.336029 542.224121,329.272400 
	C537.602722,331.982056 532.566162,333.734924 526.992004,332.898926 
	C519.063965,331.709991 515.015198,326.470154 512.863037,318.316345 
	C507.847137,324.744812 501.508881,328.779724 496.885254,334.098419 
	C490.904938,340.977661 479.938873,337.555603 476.947418,330.923645 
	C473.977051,324.338501 475.740417,317.809906 476.039886,311.241760 
	C476.438049,302.508270 478.792450,294.217743 482.033905,286.140717 
	C482.962830,283.826050 483.267365,281.370453 482.807465,277.927338 
	C474.831085,279.518402 467.097748,281.305023 460.557617,285.956726 
	C446.848541,295.707336 438.318787,309.529144 431.513672,324.557098 
	C430.348114,327.131134 429.130951,329.726776 428.388550,332.436005 
	C427.481934,335.744568 425.423676,337.849396 422.259552,338.200409 
	C419.218109,338.537842 416.877319,336.797180 415.590790,333.466553 
M797.855286,277.070862 
	C797.609680,275.298889 797.756165,273.376648 795.785461,271.992737 
	C793.436279,272.894714 790.836914,273.582886 788.539673,274.828339 
	C778.416504,280.316681 770.743713,288.167755 766.550659,299.018127 
	C765.653015,301.340881 764.544556,304.255219 767.761536,306.125824 
	C772.341980,308.789276 777.361267,310.409210 781.724243,306.589203 
	C790.387146,299.004395 798.850403,291.041107 797.855286,277.070862 
M609.497925,375.119904 
	C609.848511,372.322784 609.661194,369.507111 610.403442,366.704529 
	C613.550781,354.821075 612.889160,342.717834 612.442627,330.418640 
	C598.542053,340.628998 596.616028,388.551208 605.903625,397.602142 
	C608.590332,390.572327 608.402710,383.200928 609.497925,375.119904 
M661.731445,282.505005 
	C658.662964,287.454010 655.816223,292.561340 652.440125,297.290771 
	C650.511658,299.992279 650.499329,302.155731 652.584778,304.383179 
	C654.839783,306.791718 657.191711,305.500366 659.313904,304.065857 
	C664.489502,300.567596 667.017029,294.978699 670.113770,289.885529 
	C670.961121,288.491821 672.601929,286.066467 670.398682,285.080811 
	C667.732300,283.887970 666.142822,279.322968 661.731445,282.505005 
M264.766541,211.278046 
	C266.006012,216.128937 268.872650,219.948044 272.458038,223.329803 
	C269.879791,218.196350 268.613739,212.359451 263.731354,207.275772 
	C264.163574,209.094650 264.350922,209.882996 264.766541,211.278046 
z"/>
<path fill="#000000" opacity="1.000000" stroke="none" 
	d="
M625.198303,235.706650 
	C624.690979,237.546326 624.375305,239.041855 623.707520,240.358826 
	C622.298889,243.136642 617.977234,244.238205 615.573792,242.385834 
	C613.410156,240.718201 612.719177,238.145645 613.140320,235.649811 
	C613.627014,232.765396 614.059021,229.448257 617.182617,228.037384 
	C621.707581,225.993561 625.248108,229.278870 625.198303,235.706650 
z"/>
<path fill="#000000" opacity="1.000000" stroke="none" 
	d="
M282.385437,278.521820 
	C285.833221,274.447327 289.279602,273.904297 292.197937,276.669342 
	C294.534393,278.883087 293.905090,284.261688 290.942169,286.799683 
	C288.858490,288.584503 286.228088,289.010559 284.017792,287.699890 
	C280.475311,285.599335 281.244659,282.140503 282.385437,278.521820 
z"/>
<path fill="#000000" opacity="1.000000" stroke="none" 
	d="
M256.342468,290.500641 
	C250.888931,288.079651 250.252472,286.354767 252.167236,281.693054 
	C253.811630,277.689575 256.561737,277.136658 260.151276,278.582886 
	C262.618927,279.577118 263.680298,281.530090 263.250275,284.126526 
	C262.640198,287.809875 261.316345,290.889771 256.342468,290.500641 
z"/>
</svg>